<?xml version="1.0" encoding="UTF-8" standalone="no"?>
<svg
   xmlns:dc="http://purl.org/dc/elements/1.1/"
   xmlns:cc="http://creativecommons.org/ns#"
   xmlns:rdf="http://www.w3.org/1999/02/22-rdf-syntax-ns#"
   xmlns:svg="http://www.w3.org/2000/svg"
   xmlns="http://www.w3.org/2000/svg"
   xmlns:sodipodi="http://sodipodi.sourceforge.net/DTD/sodipodi-0.dtd"
   xmlns:inkscape="http://www.inkscape.org/namespaces/inkscape"
   version="1.1"
   x="0px"
   y="0px"
   viewBox="0 0 44.0298 44.029701"
   enable-background="new 0 0 50 50"
   xml:space="preserve"
   id="svg3827"
   sodipodi:docname="noun_ball of yarn_2430958.svg"
   width="44.0298"
   height="44.029701"
   inkscape:version="0.92.5 (2060ec1f9f, 2020-04-08)"><metadata
     id="metadata3833"><rdf:RDF><cc:Work
         rdf:about=""><dc:format>image/svg+xml</dc:format><dc:type
           rdf:resource="http://purl.org/dc/dcmitype/StillImage" /></cc:Work></rdf:RDF></metadata><defs
     id="defs3831" /><sodipodi:namedview
     pagecolor="#ffffff"
     bordercolor="#666666"
     borderopacity="1"
     objecttolerance="10"
     gridtolerance="10"
     guidetolerance="10"
     inkscape:pageopacity="0"
     inkscape:pageshadow="2"
     inkscape:window-width="2560"
     inkscape:window-height="1375"
     id="namedview3829"
     showgrid="false"
     inkscape:zoom="18.528"
     inkscape:cx="22.0149"
     inkscape:cy="22.241484"
     inkscape:window-x="0"
     inkscape:window-y="35"
     inkscape:window-maximized="1"
     inkscape:current-layer="svg3827" /><g
     id="g3821"
     transform="translate(-2.9851,-2.9851)"><path
       d="M 11.5869,7.5482 23.7887,19.75 26.2748,17.2639 14.6034,5.5925 C 13.542,6.1622 12.535,6.8185 11.5869,7.5482 Z"
       id="path3793"
       inkscape:connector-curvature="0" /><path
       d="m 16.396,4.7309 4.3249,4.3334 V 3.4042 C 19.219,3.7002 17.7713,4.1464 16.396,4.7309 Z"
       id="path3795"
       inkscape:connector-curvature="0" /><path
       d="M 30.9562,12.5824 V 3.8072 C 29.9038,3.512 28.82,3.2934 27.7101,3.1571 v 12.6714 z"
       id="path3797"
       inkscape:connector-curvature="0" /><path
       d="m 45.1958,16.2336 -28.962,28.9622 c 1.1942,0.5191 2.4439,0.9327 3.7369,1.235 L 46.4291,19.9633 C 46.127,18.6729 45.714,17.4256 45.1958,16.2336 Z"
       id="path3799"
       inkscape:connector-curvature="0" /><path
       d="M 36.995,6.5437 C 35.6956,5.6974 34.3023,4.9846 32.8325,4.4247 v 6.2814 z"
       id="path3801"
       inkscape:connector-curvature="0" /><path
       d="m 46.8333,22.2142 -24.6192,24.619 c 0.9131,0.1154 1.8416,0.1816 2.786,0.1816 0.6719,0 1.3354,-0.035 1.9919,-0.0939 0.2018,-0.1609 0.406,-0.3179 0.5995,-0.4929 L 46.9122,27.1075 c 0.0659,-0.6939 0.1027,-1.3964 0.1027,-2.1075 0,-0.9443 -0.0663,-1.8728 -0.1816,-2.7858 z"
       id="path3803"
       inkscape:connector-curvature="0" /><path
       d="M 42.3518,11.4596 11.4546,42.3477 c 0.941,0.7358 1.9401,1.4003 2.9949,1.9774 L 44.3252,14.4494 c -0.5761,-1.0528 -1.2393,-2.0503 -1.9734,-2.9898 z"
       id="path3805"
       inkscape:connector-curvature="0" /><path
       d="M 30.2961,46.3693 C 38.1988,44.4171 44.4172,38.1988 46.3694,30.296 Z"
       id="path3807"
       inkscape:connector-curvature="0" /><path
       d="m 2.9851,25 c 0,4.426 1.3109,8.5435 3.5587,11.9949 L 11.0297,32.5091 2.9983,24.4777 C 2.9942,24.6519 2.9851,24.8248 2.9851,25 Z"
       id="path3809"
       inkscape:connector-curvature="0" /><path
       d="m 3.1918,22.0167 9.1607,9.1696 2.486,-2.4955 L 4.1332,17.9853 c -0.435,1.2945 -0.753,2.6419 -0.9414,4.0314 z"
       id="path3811"
       inkscape:connector-curvature="0" /><path
       d="M 10.0204,41.1268 41.1269,10.0204 C 40.3306,9.1635 39.4661,8.3719 38.5433,7.6505 L 7.6505,38.5432 c 0.7214,0.9228 1.5129,1.7873 2.3699,2.5836 z"
       id="path3813"
       inkscape:connector-curvature="0" /><path
       d="M 16.1614,27.368 18.6569,24.8818 6.6325,12.8665 c -0.6721,1.0152 -1.2601,2.09 -1.7589,3.2137 z"
       id="path3815"
       inkscape:connector-curvature="0" /><path
       d="M 22.4659,21.0728 10.1416,8.7576 c -0.8629,0.7897 -1.6591,1.65 -2.3873,2.567 L 19.9798,23.559 Z"
       id="path3817"
       inkscape:connector-curvature="0" /><path
       d="m 25.0001,2.9851 c -0.8124,0 -1.6135,0.0472 -2.403,0.133 v 7.8225 l 3.2368,3.2367 V 3.0062 C 25.5568,2.9958 25.2798,2.9851 25.0001,2.9851 Z"
       id="path3819"
       inkscape:connector-curvature="0" /></g></svg>